<svg xmlns="http://www.w3.org/2000/svg" viewBox="0 0 64 64" role="img" aria-label="小羊与小猪">
  <defs>
    <linearGradient id="bg" x1="8" y1="8" x2="56" y2="56" gradientUnits="userSpaceOnUse">
      <stop offset="0" stop-color="#7cc7ff" />
      <stop offset="1" stop-color="#ff9ec7" />
    </linearGradient>
  </defs>
  <rect x="4" y="4" width="56" height="56" rx="18" fill="url(#bg)" />
  <circle cx="24" cy="26" r="10" fill="#fff7fb" />
  <circle cx="40" cy="26" r="10" fill="#fffaf2" />
  <circle cx="21" cy="24" r="1.7" fill="#3f4b63" />
  <circle cx="27" cy="24" r="1.7" fill="#3f4b63" />
  <circle cx="37" cy="24" r="1.7" fill="#3f4b63" />
  <circle cx="43" cy="24" r="1.7" fill="#3f4b63" />
  <ellipse cx="24" cy="29.5" rx="3.2" ry="2.1" fill="#ffb9d0" />
  <ellipse cx="40" cy="29.5" rx="3.2" ry="2.1" fill="#ffc4a3" />
  <path d="M20.4 17.4c1-2.5 3.4-4.2 6.1-4.2 2.8 0 5.2 1.7 6.2 4.2" fill="none" stroke="#fff" stroke-linecap="round" stroke-width="2.6" />
  <path d="M39.2 17c1.3-1.8 3.4-2.8 5.7-2.8 3.8 0 6.9 3.1 6.9 6.9 0 1.8-.7 3.5-2 4.8l-7.8 7.7-7.8-7.7a6.7 6.7 0 0 1-2-4.8c0-3.8 3.1-6.9 6.9-6.9" fill="#fff3f7" opacity=".96" />
  <path d="M42 22.5c.8-1.1 2.1-1.8 3.5-1.8 2.4 0 4.3 1.9 4.3 4.3 0 1.1-.4 2.2-1.3 3l-4.9 4.8-4.8-4.8a4.2 4.2 0 0 1-1.3-3c0-2.4 1.9-4.3 4.3-4.3" fill="#ff7cad" />
  <path d="M20 42c3.3 2.5 7.5 3.8 12 3.8 4.5 0 8.8-1.3 12-3.8" fill="none" stroke="#ffffff" stroke-linecap="round" stroke-width="3" />
</svg>
